<?xml version="1.0" encoding="utf-8"?>
<!-- Generator: Adobe Illustrator 19.2.1, SVG Export Plug-In . SVG Version: 6.00 Build 0)  -->
<svg version="1.1" id="Layer_1" xmlns="http://www.w3.org/2000/svg" xmlns:xlink="http://www.w3.org/1999/xlink" x="0px" y="0px"
	 viewBox="0 0 40 40" style="enable-background:new 0 0 40 40;" xml:space="preserve">
<style type="text/css">
	.st0{fill:#1E1E1E;}
</style>
<g>
	<path class="st0" d="M29.1,32.7H8.7c-3.8,0-6.9-3.1-6.9-6.9c0-3.1,2.1-5.8,5.1-6.7c0-0.4-0.1-0.8-0.1-1.2c0-5.9,4.8-10.6,10.6-10.6
		c4.7,0,8.7,3,10.1,7.3c0.5-0.1,1.1-0.1,1.6-0.1c5,0,9.1,4.1,9.1,9.1C38.2,28.6,34.1,32.7,29.1,32.7z M17.4,9c-4.9,0-8.9,4-8.9,8.9
		c0,0.6,0.1,1.1,0.2,1.7l0.2,0.9L8,20.6c-2.5,0.4-4.4,2.6-4.4,5.1c0,2.9,2.3,5.2,5.2,5.2h20.3c4.1,0,7.4-3.3,7.4-7.4
		s-3.3-7.4-7.4-7.4c-0.7,0-1.3,0.1-2,0.3l-0.9,0.2L26,15.8C25.1,11.8,21.5,9,17.4,9z"/>
</g>
</svg>
